<?xml version="1.0" encoding="UTF-8" standalone="no"?>
<!DOCTYPE svg PUBLIC "-//W3C//DTD SVG 1.1//EN" "http://www.w3.org/Graphics/SVG/1.1/DTD/svg11.dtd">
<svg width="100%" height="100%" viewBox="0 0 495 644" version="1.1" xmlns="http://www.w3.org/2000/svg" xmlns:xlink="http://www.w3.org/1999/xlink" xml:space="preserve" xmlns:serif="http://www.serif.com/" style="fill-rule:evenodd;clip-rule:evenodd;stroke-linecap:round;stroke-linejoin:round;stroke-miterlimit:1.5;">
    <g id="Back-Cape" serif:id="Back Cape" transform="matrix(1,0,0,1,2.45802,-3.27735)">
        <path d="M103.188,97.333L73.943,216.518L92.216,240.428L70.102,331.64L83.577,353.098L59.699,424.108L72.597,496.292L57.078,560.363L64.417,602.97C168.881,587.618 257.774,589.343 332.9,606.168L348.714,574.262L343.336,505.391L360.685,462.081L354.647,380.469L359.308,337.949L349.451,266.717L361.395,238.271L358.071,139.381C306.513,255.607 218.792,218.662 103.188,97.333Z" style="stroke:rgb(255,224,0);stroke-width:2px;"/>
    </g>
    <g id="Boots" transform="matrix(1,0,0,1,2.45802,-3.27735)">
        <path d="M256.628,617.304L324.371,617.617L293.232,600.685L284.227,500.636L253.178,502.831L256.628,617.304Z" style="stroke:rgb(255,224,0);stroke-width:2px;"/>
        <g transform="matrix(1,0,0,1,34.8906,5.48841)">
            <path d="M86.017,615.657L143.724,616.676L136.424,604.174L165.677,484.641L119.575,480.564L86.017,615.657Z" style="stroke:rgb(255,224,0);stroke-width:2px;"/>
        </g>
    </g>
    <g id="Neck" transform="matrix(1,0,0,1,-139.876,-23.3171)">
        <path d="M386.813,210.255L395.517,166.008C394.358,205.051 415.213,194.834 431.664,185.673L427.766,218.605L386.813,210.255Z" style="fill:rgb(98,75,70);stroke:black;stroke-width:2px;"/>
    </g>
    <g id="Arm" transform="matrix(1,0,0,1,2.45802,-3.27735)">
        <path d="M337.813,329.657L318.764,192.049L271.748,215.385L302.791,333.867L337.813,329.657Z" style="stroke:rgb(255,224,0);stroke-width:2px;"/>
    </g>
    <g id="Robe" transform="matrix(1,0,0,1,2.45802,-3.27735)">
        <path d="M94.495,562.487C134.087,587.198 297.439,597.836 303.682,579.298C313.842,534.447 302.972,437.267 284.551,376.445L137.273,350.101L94.495,562.487Z" style="stroke:rgb(255,224,0);stroke-width:2px;"/>
        <g transform="matrix(1,-0.0970813,0,1,-7.52699,17.7617)">
            <path d="M211.284,375.68L201.048,627.39C217.657,646.057 241.748,649.473 263.898,630.715L251.089,379.364C241.397,367.288 227.294,363.724 211.284,375.68Z" style="stroke:rgb(255,224,0);stroke-width:2.1px;"/>
        </g>
        <g transform="matrix(1,-0.120398,0,2.33226,2.03387,-801.343)">
            <path d="M223.423,523.881L213.921,618.024C213.921,620.305 218.179,622.157 223.423,622.157C228.667,622.157 232.925,620.305 232.925,618.024L223.423,523.881Z" style="fill:rgb(255,224,0);stroke:black;stroke-width:1.17px;"/>
        </g>
        <path d="M281.745,361.314L299.338,298.423L312.051,242.788C310.956,231.233 308.052,220.582 302.401,211.305C285.211,217.703 266.358,222.676 243.026,223.81C227.73,219.299 202.556,188.47 189.453,178.258L168.01,190.521L138.906,331.025L161.788,341.864C208.274,365.541 247.036,370.826 281.745,361.314Z" style="stroke:rgb(255,224,0);stroke-width:2px;"/>
        <g transform="matrix(1,0,0,1,7.16942,-76.2704)">
            <path d="M143.335,409.499L325.562,269.594L330.728,288.068L188.313,439.926L143.335,409.499Z" style="fill:rgb(255,211,63);stroke:black;stroke-width:2px;"/>
        </g>
        <path d="M141.962,333.381C198.723,352.469 247.897,363.052 283.461,358.373L286.033,378.22C244.296,385.647 194.244,376.446 136.449,351.757L141.962,333.381Z" style="fill:rgb(255,211,63);stroke:black;stroke-width:2px;"/>
        <g transform="matrix(1.03024,-0.0901281,-0.169702,0.985495,42.3892,9.65972)">
            <ellipse cx="254.61" cy="269.893" rx="14.837" ry="20.915" style="fill:rgb(207,0,136);stroke:rgb(255,249,206);stroke-width:2.28px;"/>
        </g>
        <g transform="matrix(0.397453,-0.0347703,-0.0654689,0.380191,175.484,159.602)">
            <ellipse cx="254.61" cy="269.893" rx="14.837" ry="20.915" style="fill:rgb(0,189,255);stroke:rgb(255,249,206);stroke-width:5.9px;"/>
        </g>
        <path d="M251.889,237.664C229.036,211.736 216.004,182.382 210.643,150.352" style="fill:none;stroke:rgb(255,249,206);stroke-width:2px;"/>
        <path d="M271.9,236.686C289.673,219.063 302.547,199.806 311.777,179.335" style="fill:none;stroke:rgb(255,249,206);stroke-width:2px;"/>
    </g>
    <g id="Scarf" transform="matrix(1,0,0,1,2.45802,-3.27735)">
        <path d="M240.415,224.806C274.879,224.713 303.102,216.815 324.685,200.553L322.424,160.679C320.59,180.27 299.608,187.108 265.162,186.145C237.718,173.11 214.591,157.751 196.739,135.398L174.849,169.209C192.219,192.227 212.904,211.93 240.415,224.806Z" style="fill:rgb(4,0,255);stroke:black;stroke-width:2px;"/>
        <path d="M200.62,140.054C222.896,194.241 242.12,222.811 255.681,224.216" style="fill:none;stroke:black;stroke-width:2px;"/>
        <path d="M329.987,178.151C319.589,187.201 280.438,209.428 259.151,210.051C251.934,208.059 245.781,205.18 240.669,201.435C231.539,194.858 226.036,191.453 220.247,182.766C231.821,191.386 242.543,195.072 258.559,202.092C276.941,207.551 319.449,182.093 329.987,178.151Z" style="stroke:black;stroke-width:2px;"/>
        <path d="M237.414,210.305C220.78,206.21 201.413,190.882 188.507,180.428" style="fill:none;stroke:black;stroke-width:2px;"/>
        <path d="M266.592,222.327L298.741,197.521" style="fill:none;stroke:black;stroke-width:2px;"/>
        <path d="M259.473,204.21C266.725,198.227 267.051,193.696 263.86,185.579" style="fill:none;stroke:black;stroke-width:2px;"/>
        <path d="M257.958,209.809C260.294,214.09 259.257,221.397 254.969,225.004" style="fill:none;stroke:black;stroke-width:2px;"/>
        <path d="M279.486,212.378C298.154,208.502 317.091,198.406 330.848,189.794" style="fill:none;stroke:black;stroke-width:2px;"/>
    </g>
    <g id="Front-Cape" serif:id="Front Cape" transform="matrix(1,0,0,1,2.45802,-3.27735)">
        <g id="Feathers">
            <path id="feathers" d="M203.408,170.023L103.188,97.333C208.273,13.286 300.644,0.99 357.884,140.111L315.103,185.304C265.129,85.533 241.851,62.116 203.408,170.023Z" style="fill:white;stroke:black;stroke-width:2px;"/>
            <g transform="matrix(-1.24812,0.749685,-0.492468,-1.46601,457.912,91.3124)">
                <g id="feather">
                    <g transform="matrix(1,0,0,-1,0,207.035)">
                        <path d="M154,83.777L158.634,103.562L149.366,103.562L154,83.777Z" style="fill:white;stroke:black;stroke-width:1.21px;"/>
                    </g>
                    <path d="M154,83.777L158.634,103.562L149.366,103.562L154,83.777Z" style="fill:white;stroke:black;stroke-width:1.5px;"/>
                </g>
                <g id="feather1" serif:id="feather" transform="matrix(1,0,0,1,9.37208,0)">
                    <g transform="matrix(1,0,0,-1,0,207.035)">
                        <path d="M154,83.777L158.634,103.562L149.366,103.562L154,83.777Z" style="fill:white;stroke:black;stroke-width:1.21px;"/>
                    </g>
                    <path d="M154,83.777L158.634,103.562L149.366,103.562L154,83.777Z" style="fill:white;stroke:black;stroke-width:1.5px;"/>
                </g>
                <g id="feather2" serif:id="feather" transform="matrix(1,0,0,1,-9.16381,0)">
                    <g transform="matrix(1,0,0,-1,0,207.035)">
                        <path d="M154,83.777L158.634,103.562L149.366,103.562L154,83.777Z" style="fill:white;stroke:black;stroke-width:1.21px;"/>
                    </g>
                    <path d="M154,83.777L158.634,103.562L149.366,103.562L154,83.777Z" style="fill:white;stroke:black;stroke-width:1.5px;"/>
                </g>
                <g id="feather3" serif:id="feather" transform="matrix(1,0,0,1,4.47777,-19.9938)">
                    <g transform="matrix(1,0,0,-1,0,207.035)">
                        <path d="M154,83.777L158.634,103.562L149.366,103.562L154,83.777Z" style="fill:white;stroke:black;stroke-width:1.21px;"/>
                    </g>
                    <path d="M154,83.777L158.634,103.562L149.366,103.562L154,83.777Z" style="fill:white;stroke:black;stroke-width:1.5px;"/>
                </g>
                <g id="feather4" serif:id="feather" transform="matrix(1,0,0,1,13.8499,-19.9938)">
                    <g transform="matrix(1,0,0,-1,0,207.035)">
                        <path d="M154,83.777L158.634,103.562L149.366,103.562L154,83.777Z" style="fill:white;stroke:black;stroke-width:1.21px;"/>
                    </g>
                    <path d="M154,83.777L158.634,103.562L149.366,103.562L154,83.777Z" style="fill:white;stroke:black;stroke-width:1.5px;"/>
                </g>
                <g id="feather5" serif:id="feather" transform="matrix(1,0,0,1,-4.68604,-19.9938)">
                    <g transform="matrix(1,0,0,-1,0,207.035)">
                        <path d="M154,83.777L158.634,103.562L149.366,103.562L154,83.777Z" style="fill:white;stroke:black;stroke-width:1.21px;"/>
                    </g>
                    <path d="M154,83.777L158.634,103.562L149.366,103.562L154,83.777Z" style="fill:white;stroke:black;stroke-width:1.5px;"/>
                </g>
                <g id="feather6" serif:id="feather" transform="matrix(1,0,0,1,27.5956,0)">
                    <g transform="matrix(1,0,0,-1,0,207.035)">
                        <path d="M154,83.777L158.634,103.562L149.366,103.562L154,83.777Z" style="fill:white;stroke:black;stroke-width:1.21px;"/>
                    </g>
                    <path d="M154,83.777L158.634,103.562L149.366,103.562L154,83.777Z" style="fill:white;stroke:black;stroke-width:1.5px;"/>
                </g>
                <g id="feather7" serif:id="feather" transform="matrix(1,0,0,1,36.9677,0)">
                    <g transform="matrix(1,0,0,-1,0,207.035)">
                        <path d="M154,83.777L158.634,103.562L149.366,103.562L154,83.777Z" style="fill:white;stroke:black;stroke-width:1.21px;"/>
                    </g>
                    <path d="M154,83.777L158.634,103.562L149.366,103.562L154,83.777Z" style="fill:white;stroke:black;stroke-width:1.5px;"/>
                </g>
                <g id="feather8" serif:id="feather" transform="matrix(1,0,0,1,18.4318,0)">
                    <g transform="matrix(1,0,0,-1,0,207.035)">
                        <path d="M154,83.777L158.634,103.562L149.366,103.562L154,83.777Z" style="fill:white;stroke:black;stroke-width:1.21px;"/>
                    </g>
                    <path d="M154,83.777L158.634,103.562L149.366,103.562L154,83.777Z" style="fill:white;stroke:black;stroke-width:1.5px;"/>
                </g>
                <g id="feather9" serif:id="feather" transform="matrix(1,0,0,1,32.0733,-19.9938)">
                    <g transform="matrix(1,0,0,-1,0,207.035)">
                        <path d="M154,83.777L158.634,103.562L149.366,103.562L154,83.777Z" style="fill:white;stroke:black;stroke-width:1.21px;"/>
                    </g>
                    <path d="M154,83.777L158.634,103.562L149.366,103.562L154,83.777Z" style="fill:white;stroke:black;stroke-width:1.5px;"/>
                </g>
                <g id="feather10" serif:id="feather" transform="matrix(1,0,0,1,41.4454,-19.9938)">
                    <g transform="matrix(1,0,0,-1,0,207.035)">
                        <path d="M154,83.777L158.634,103.562L149.366,103.562L154,83.777Z" style="fill:white;stroke:black;stroke-width:1.21px;"/>
                    </g>
                    <path d="M154,83.777L158.634,103.562L149.366,103.562L154,83.777Z" style="fill:white;stroke:black;stroke-width:1.5px;"/>
                </g>
                <g id="feather11" serif:id="feather" transform="matrix(1,0,0,1,22.9095,-19.9938)">
                    <g transform="matrix(1,0,0,-1,0,207.035)">
                        <path d="M154,83.777L158.634,103.562L149.366,103.562L154,83.777Z" style="fill:white;stroke:black;stroke-width:1.21px;"/>
                    </g>
                    <path d="M154,83.777L158.634,103.562L149.366,103.562L154,83.777Z" style="fill:white;stroke:black;stroke-width:1.5px;"/>
                </g>
                <g id="feather12" serif:id="feather" transform="matrix(1,0,0,1,0,38.1131)">
                    <g transform="matrix(1,0,0,-1,0,207.035)">
                        <path d="M154,83.777L158.634,103.562L149.366,103.562L154,83.777Z" style="fill:white;stroke:black;stroke-width:1.21px;"/>
                    </g>
                    <path d="M154,83.777L158.634,103.562L149.366,103.562L154,83.777Z" style="fill:white;stroke:black;stroke-width:1.5px;"/>
                </g>
                <g id="feather13" serif:id="feather" transform="matrix(1,0,0,1,9.37208,38.1131)">
                    <g transform="matrix(1,0,0,-1,0,207.035)">
                        <path d="M154,83.777L158.634,103.562L149.366,103.562L154,83.777Z" style="fill:white;stroke:black;stroke-width:1.21px;"/>
                    </g>
                    <path d="M154,83.777L158.634,103.562L149.366,103.562L154,83.777Z" style="fill:white;stroke:black;stroke-width:1.5px;"/>
                </g>
                <g id="feather14" serif:id="feather" transform="matrix(1,0,0,1,-9.16381,38.1131)">
                    <path d="M154,83.777L158.634,103.562L149.366,103.562L154,83.777Z" style="fill:white;stroke:black;stroke-width:1.5px;"/>
                </g>
                <g id="feather15" serif:id="feather" transform="matrix(1,0,0,1,4.47777,18.1194)">
                    <g transform="matrix(1,0,0,-1,0,207.035)">
                        <path d="M154,83.777L158.634,103.562L149.366,103.562L154,83.777Z" style="fill:white;stroke:black;stroke-width:1.21px;"/>
                    </g>
                    <path d="M154,83.777L158.634,103.562L149.366,103.562L154,83.777Z" style="fill:white;stroke:black;stroke-width:1.5px;"/>
                </g>
                <g id="feather16" serif:id="feather" transform="matrix(1,0,0,1,13.8499,18.1194)">
                    <g transform="matrix(1,0,0,-1,0,207.035)">
                        <path d="M154,83.777L158.634,103.562L149.366,103.562L154,83.777Z" style="fill:white;stroke:black;stroke-width:1.21px;"/>
                    </g>
                    <path d="M154,83.777L158.634,103.562L149.366,103.562L154,83.777Z" style="fill:white;stroke:black;stroke-width:1.5px;"/>
                </g>
                <g id="feather17" serif:id="feather" transform="matrix(1,0,0,1,-4.68604,18.1194)">
                    <g transform="matrix(1,0,0,-1,0,207.035)">
                        <path d="M154,83.777L158.634,103.562L149.366,103.562L154,83.777Z" style="fill:white;stroke:black;stroke-width:1.21px;"/>
                    </g>
                    <path d="M154,83.777L158.634,103.562L149.366,103.562L154,83.777Z" style="fill:white;stroke:black;stroke-width:1.5px;"/>
                </g>
                <g id="feather18" serif:id="feather" transform="matrix(1,0,0,1,27.5956,38.1131)">
                    <g transform="matrix(1,0,0,-1,0,207.035)">
                        <path d="M154,83.777L158.634,103.562L149.366,103.562L154,83.777Z" style="fill:white;stroke:black;stroke-width:1.21px;"/>
                    </g>
                    <path d="M154,83.777L158.634,103.562L149.366,103.562L154,83.777Z" style="fill:white;stroke:black;stroke-width:1.5px;"/>
                </g>
                <g id="feather19" serif:id="feather" transform="matrix(1,0,0,1,36.9677,38.1131)">
                    <g transform="matrix(1,0,0,-1,0,207.035)">
                        <path d="M154,83.777L158.634,103.562L149.366,103.562L154,83.777Z" style="fill:white;stroke:black;stroke-width:1.21px;"/>
                    </g>
                    <path d="M154,83.777L158.634,103.562L149.366,103.562L154,83.777Z" style="fill:white;stroke:black;stroke-width:1.5px;"/>
                </g>
                <g id="feather20" serif:id="feather" transform="matrix(1,0,0,1,18.4318,38.1131)">
                    <g transform="matrix(1,0,0,-1,0,207.035)">
                        <path d="M154,83.777L158.634,103.562L149.366,103.562L154,83.777Z" style="fill:white;stroke:black;stroke-width:1.21px;"/>
                    </g>
                    <path d="M154,83.777L158.634,103.562L149.366,103.562L154,83.777Z" style="fill:white;stroke:black;stroke-width:1.5px;"/>
                </g>
                <g id="feather21" serif:id="feather" transform="matrix(1,0,0,1,32.0733,18.1194)">
                    <g transform="matrix(1,0,0,-1,0,207.035)">
                        <path d="M154,83.777L158.634,103.562L149.366,103.562L154,83.777Z" style="fill:white;stroke:black;stroke-width:1.21px;"/>
                    </g>
                    <path d="M154,83.777L158.634,103.562L149.366,103.562L154,83.777Z" style="fill:white;stroke:black;stroke-width:1.5px;"/>
                </g>
                <g id="feather22" serif:id="feather" transform="matrix(1,0,0,1,41.4454,18.1194)">
                    <g transform="matrix(1,0,0,-1,0,207.035)">
                        <path d="M154,83.777L158.634,103.562L149.366,103.562L154,83.777Z" style="fill:white;stroke:black;stroke-width:1.21px;"/>
                    </g>
                    <path d="M154,83.777L158.634,103.562L149.366,103.562L154,83.777Z" style="fill:white;stroke:black;stroke-width:1.5px;"/>
                </g>
                <g id="feather23" serif:id="feather" transform="matrix(1,0,0,1,22.9095,18.1194)">
                    <g transform="matrix(1,0,0,-1,0,207.035)">
                        <path d="M154,83.777L158.634,103.562L149.366,103.562L154,83.777Z" style="fill:white;stroke:black;stroke-width:1.21px;"/>
                    </g>
                    <path d="M154,83.777L158.634,103.562L149.366,103.562L154,83.777Z" style="fill:white;stroke:black;stroke-width:1.5px;"/>
                </g>
            </g>
            <g transform="matrix(0.5681,-1.44896,1.09998,1.11553,-64.0292,226.878)">
                <g id="feather24" serif:id="feather">
                    <g transform="matrix(1,0,0,-1,0,207.035)">
                        <path d="M154,83.777L158.634,103.562L149.366,103.562L154,83.777Z" style="fill:white;stroke:black;stroke-width:1.08px;"/>
                    </g>
                    <path d="M154,83.777L158.634,103.562L149.366,103.562L154,83.777Z" style="fill:white;stroke:black;stroke-width:1.66px;"/>
                </g>
                <g id="feather25" serif:id="feather" transform="matrix(1,0,0,1,9.37208,0)">
                    <g transform="matrix(1,0,0,-1,0,207.035)">
                        <path d="M154,83.777L158.634,103.562L149.366,103.562L154,83.777Z" style="fill:white;stroke:black;stroke-width:1.08px;"/>
                    </g>
                    <path d="M154,83.777L158.634,103.562L149.366,103.562L154,83.777Z" style="fill:white;stroke:black;stroke-width:1.66px;"/>
                </g>
                <g id="feather26" serif:id="feather" transform="matrix(1,0,0,1,-9.16381,0)">
                    <g transform="matrix(1,0,0,-1,0,207.035)">
                        <path d="M154,83.777L158.634,103.562L149.366,103.562L154,83.777Z" style="fill:white;stroke:black;stroke-width:1.08px;"/>
                    </g>
                    <path d="M154,83.777L158.634,103.562L149.366,103.562L154,83.777Z" style="fill:white;stroke:black;stroke-width:1.66px;"/>
                </g>
                <g id="feather27" serif:id="feather" transform="matrix(1,0,0,1,4.47777,-19.9938)">
                    <g transform="matrix(1,0,0,-1,0,207.035)">
                        <path d="M154,83.777L158.634,103.562L149.366,103.562L154,83.777Z" style="fill:white;stroke:black;stroke-width:1.08px;"/>
                    </g>
                    <path d="M154,83.777L158.634,103.562L149.366,103.562L154,83.777Z" style="fill:white;stroke:black;stroke-width:1.66px;"/>
                </g>
                <g id="feather28" serif:id="feather" transform="matrix(1,0,0,1,13.8499,-19.9938)">
                    <g transform="matrix(1,0,0,-1,0,207.035)">
                        <path d="M154,83.777L158.634,103.562L149.366,103.562L154,83.777Z" style="fill:white;stroke:black;stroke-width:1.08px;"/>
                    </g>
                    <path d="M154,83.777L158.634,103.562L149.366,103.562L154,83.777Z" style="fill:white;stroke:black;stroke-width:1.66px;"/>
                </g>
                <g id="feather29" serif:id="feather" transform="matrix(1,0,0,1,-4.68604,-19.9938)">
                    <g transform="matrix(1,0,0,-1,0,207.035)">
                        <path d="M154,83.777L158.634,103.562L149.366,103.562L154,83.777Z" style="fill:white;stroke:black;stroke-width:1.08px;"/>
                    </g>
                    <path d="M154,83.777L158.634,103.562L149.366,103.562L154,83.777Z" style="fill:white;stroke:black;stroke-width:1.66px;"/>
                </g>
                <g id="feather30" serif:id="feather" transform="matrix(1,0,0,1,27.5956,0)">
                    <g transform="matrix(1,0,0,-1,0,207.035)">
                        <path d="M154,83.777L158.634,103.562L149.366,103.562L154,83.777Z" style="fill:white;stroke:black;stroke-width:1.08px;"/>
                    </g>
                    <path d="M154,83.777L158.634,103.562L149.366,103.562L154,83.777Z" style="fill:white;stroke:black;stroke-width:1.66px;"/>
                </g>
                <g id="feather31" serif:id="feather" transform="matrix(1,0,0,1,36.9677,0)">
                    <g transform="matrix(1,0,0,-1,0,207.035)">
                        <path d="M154,83.777L158.634,103.562L149.366,103.562L154,83.777Z" style="fill:white;stroke:black;stroke-width:1.08px;"/>
                    </g>
                    <path d="M154,83.777L158.634,103.562L149.366,103.562L154,83.777Z" style="fill:white;stroke:black;stroke-width:1.66px;"/>
                </g>
                <g id="feather32" serif:id="feather" transform="matrix(1,0,0,1,18.4318,0)">
                    <g transform="matrix(1,0,0,-1,0,207.035)">
                        <path d="M154,83.777L158.634,103.562L149.366,103.562L154,83.777Z" style="fill:white;stroke:black;stroke-width:1.08px;"/>
                    </g>
                    <path d="M154,83.777L158.634,103.562L149.366,103.562L154,83.777Z" style="fill:white;stroke:black;stroke-width:1.66px;"/>
                </g>
                <g id="feather33" serif:id="feather" transform="matrix(1,0,0,1,32.0733,-19.9938)">
                    <g transform="matrix(1,0,0,-1,0,207.035)">
                        <path d="M154,83.777L158.634,103.562L149.366,103.562L154,83.777Z" style="fill:white;stroke:black;stroke-width:1.08px;"/>
                    </g>
                    <path d="M154,83.777L158.634,103.562L149.366,103.562L154,83.777Z" style="fill:white;stroke:black;stroke-width:1.66px;"/>
                </g>
                <g id="feather34" serif:id="feather" transform="matrix(1,0,0,1,41.4454,-19.9938)">
                    <g transform="matrix(1,0,0,-1,0,207.035)">
                        <path d="M154,83.777L158.634,103.562L149.366,103.562L154,83.777Z" style="fill:white;stroke:black;stroke-width:1.08px;"/>
                    </g>
                    <path d="M154,83.777L158.634,103.562L149.366,103.562L154,83.777Z" style="fill:white;stroke:black;stroke-width:1.66px;"/>
                </g>
                <g id="feather35" serif:id="feather" transform="matrix(1,0,0,1,22.9095,-19.9938)">
                    <g transform="matrix(1,0,0,-1,0,207.035)">
                        <path d="M154,83.777L158.634,103.562L149.366,103.562L154,83.777Z" style="fill:white;stroke:black;stroke-width:1.08px;"/>
                    </g>
                    <path d="M154,83.777L158.634,103.562L149.366,103.562L154,83.777Z" style="fill:white;stroke:black;stroke-width:1.66px;"/>
                </g>
                <g id="feather36" serif:id="feather" transform="matrix(1,0,0,1,0,38.1131)">
                    <g transform="matrix(1,0,0,-1,0,207.035)">
                        <path d="M154,83.777L158.634,103.562L149.366,103.562L154,83.777Z" style="fill:white;stroke:black;stroke-width:1.08px;"/>
                    </g>
                    <path d="M154,83.777L158.634,103.562L149.366,103.562L154,83.777Z" style="fill:white;stroke:black;stroke-width:1.66px;"/>
                </g>
                <g id="feather37" serif:id="feather" transform="matrix(1,0,0,1,9.37208,38.1131)">
                    <g transform="matrix(1,0,0,-1,0,207.035)">
                        <path d="M154,83.777L158.634,103.562L149.366,103.562L154,83.777Z" style="fill:white;stroke:black;stroke-width:1.08px;"/>
                    </g>
                    <path d="M154,83.777L158.634,103.562L149.366,103.562L154,83.777Z" style="fill:white;stroke:black;stroke-width:1.66px;"/>
                </g>
                <g id="feather38" serif:id="feather" transform="matrix(1,0,0,1,-9.16381,38.1131)">
                    <g transform="matrix(1,0,0,-1,0,207.035)">
                        <path d="M154,83.777L158.634,103.562L149.366,103.562L154,83.777Z" style="fill:white;stroke:black;stroke-width:1.08px;"/>
                    </g>
                    <path d="M154,83.777L158.634,103.562L149.366,103.562L154,83.777Z" style="fill:white;stroke:black;stroke-width:1.66px;"/>
                </g>
                <g id="feather39" serif:id="feather" transform="matrix(1,0,0,1,4.47777,18.1194)">
                    <g transform="matrix(1,0,0,-1,0,207.035)">
                        <path d="M154,83.777L158.634,103.562L149.366,103.562L154,83.777Z" style="fill:white;stroke:black;stroke-width:1.08px;"/>
                    </g>
                    <path d="M154,83.777L158.634,103.562L149.366,103.562L154,83.777Z" style="fill:white;stroke:black;stroke-width:1.66px;"/>
                </g>
                <g id="feather40" serif:id="feather" transform="matrix(1,0,0,1,13.8499,18.1194)">
                    <g transform="matrix(1,0,0,-1,0,207.035)">
                        <path d="M154,83.777L158.634,103.562L149.366,103.562L154,83.777Z" style="fill:white;stroke:black;stroke-width:1.08px;"/>
                    </g>
                    <path d="M154,83.777L158.634,103.562L149.366,103.562L154,83.777Z" style="fill:white;stroke:black;stroke-width:1.66px;"/>
                </g>
                <g id="feather41" serif:id="feather" transform="matrix(1,0,0,1,-4.68604,18.1194)">
                    <g transform="matrix(1,0,0,-1,0,207.035)">
                        <path d="M154,83.777L158.634,103.562L149.366,103.562L154,83.777Z" style="fill:white;stroke:black;stroke-width:1.08px;"/>
                    </g>
                    <path d="M154,83.777L158.634,103.562L149.366,103.562L154,83.777Z" style="fill:white;stroke:black;stroke-width:1.66px;"/>
                </g>
                <g id="feather42" serif:id="feather" transform="matrix(1,0,0,1,27.5956,38.1131)">
                    <g transform="matrix(1,0,0,-1,0,207.035)">
                        <path d="M154,83.777L158.634,103.562L149.366,103.562L154,83.777Z" style="fill:white;stroke:black;stroke-width:1.08px;"/>
                    </g>
                    <path d="M154,83.777L158.634,103.562L149.366,103.562L154,83.777Z" style="fill:white;stroke:black;stroke-width:1.66px;"/>
                </g>
                <g id="feather43" serif:id="feather" transform="matrix(1,0,0,1,36.9677,38.1131)">
                    <g transform="matrix(1,0,0,-1,0,207.035)">
                        <path d="M154,83.777L158.634,103.562L149.366,103.562L154,83.777Z" style="fill:white;stroke:black;stroke-width:1.08px;"/>
                    </g>
                    <path d="M154,83.777L158.634,103.562L149.366,103.562L154,83.777Z" style="fill:white;stroke:black;stroke-width:1.66px;"/>
                </g>
                <g id="feather44" serif:id="feather" transform="matrix(1,0,0,1,18.4318,38.1131)">
                    <g transform="matrix(1,0,0,-1,0,207.035)">
                        <path d="M154,83.777L158.634,103.562L149.366,103.562L154,83.777Z" style="fill:white;stroke:black;stroke-width:1.08px;"/>
                    </g>
                    <path d="M154,83.777L158.634,103.562L149.366,103.562L154,83.777Z" style="fill:white;stroke:black;stroke-width:1.66px;"/>
                </g>
                <g id="feather45" serif:id="feather" transform="matrix(1,0,0,1,32.0733,18.1194)">
                    <g transform="matrix(1,0,0,-1,0,207.035)">
                        <path d="M154,83.777L158.634,103.562L149.366,103.562L154,83.777Z" style="fill:white;stroke:black;stroke-width:1.08px;"/>
                    </g>
                    <path d="M154,83.777L158.634,103.562L149.366,103.562L154,83.777Z" style="fill:white;stroke:black;stroke-width:1.66px;"/>
                </g>
                <g id="feather46" serif:id="feather" transform="matrix(1,0,0,1,41.4454,18.1194)">
                    <g transform="matrix(1,0,0,-1,0,207.035)">
                        <path d="M154,83.777L158.634,103.562L149.366,103.562L154,83.777Z" style="fill:white;stroke:black;stroke-width:1.08px;"/>
                    </g>
                    <path d="M154,83.777L158.634,103.562L149.366,103.562L154,83.777Z" style="fill:white;stroke:black;stroke-width:1.66px;"/>
                </g>
                <g id="feather47" serif:id="feather" transform="matrix(1,0,0,1,22.9095,18.1194)">
                    <g transform="matrix(1,0,0,-1,0,207.035)">
                        <path d="M154,83.777L158.634,103.562L149.366,103.562L154,83.777Z" style="fill:white;stroke:black;stroke-width:1.08px;"/>
                    </g>
                    <path d="M154,83.777L158.634,103.562L149.366,103.562L154,83.777Z" style="fill:white;stroke:black;stroke-width:1.66px;"/>
                </g>
            </g>
            <g transform="matrix(1.41918,-0.0876217,0.0965105,1.56314,-0.548655,-117.144)">
                <g id="feather48" serif:id="feather">
                    <g transform="matrix(1,0,0,-1,0,207.035)">
                        <path d="M154,83.777L158.634,103.562L149.366,103.562L154,83.777Z" style="fill:white;stroke:black;stroke-width:1.34px;"/>
                    </g>
                    <path d="M154,83.777L158.634,103.562L149.366,103.562L154,83.777Z" style="fill:white;stroke:black;stroke-width:1.34px;"/>
                </g>
                <g id="feather49" serif:id="feather" transform="matrix(1,0,0,1,9.37208,0)">
                    <g transform="matrix(1,0,0,-1,0,207.035)">
                        <path d="M154,83.777L158.634,103.562L149.366,103.562L154,83.777Z" style="fill:white;stroke:black;stroke-width:1.34px;"/>
                    </g>
                    <path d="M154,83.777L158.634,103.562L149.366,103.562L154,83.777Z" style="fill:white;stroke:black;stroke-width:1.34px;"/>
                </g>
                <g id="feather50" serif:id="feather" transform="matrix(1,0,0,1,-9.16381,0)">
                    <g transform="matrix(1,0,0,-1,0,207.035)">
                        <path d="M154,83.777L158.634,103.562L149.366,103.562L154,83.777Z" style="fill:white;stroke:black;stroke-width:1.34px;"/>
                    </g>
                    <path d="M154,83.777L158.634,103.562L149.366,103.562L154,83.777Z" style="fill:white;stroke:black;stroke-width:1.34px;"/>
                </g>
                <g transform="matrix(1,0,0,-1,4.47777,187.042)">
                    <g id="feather51" serif:id="feather">
                        <path d="M154,83.777L158.634,103.562L149.366,103.562L154,83.777Z" style="fill:white;stroke:black;stroke-width:1.34px;"/>
                    </g>
                </g>
                <g transform="matrix(1,0,0,-1,13.8499,187.042)">
                    <g id="feather52" serif:id="feather">
                        <path d="M154,83.777L158.634,103.562L149.366,103.562L154,83.777Z" style="fill:white;stroke:black;stroke-width:1.34px;"/>
                    </g>
                </g>
                <g transform="matrix(1,0,0,-1,-4.68604,187.042)">
                    <g id="feather53" serif:id="feather">
                        <path d="M154,83.777L158.634,103.562L149.366,103.562L154,83.777Z" style="fill:white;stroke:black;stroke-width:1.34px;"/>
                    </g>
                </g>
                <g id="feather54" serif:id="feather" transform="matrix(1,0,0,1,27.5956,0)">
                    <g transform="matrix(1,0,0,-1,0,207.035)">
                        <path d="M154,83.777L158.634,103.562L149.366,103.562L154,83.777Z" style="fill:white;stroke:black;stroke-width:1.34px;"/>
                    </g>
                    <path d="M154,83.777L158.634,103.562L149.366,103.562L154,83.777Z" style="fill:white;stroke:black;stroke-width:1.34px;"/>
                </g>
                <g id="feather55" serif:id="feather" transform="matrix(1,0,0,1,36.9677,0)">
                    <g transform="matrix(1,0,0,-1,0,207.035)">
                        <path d="M154,83.777L158.634,103.562L149.366,103.562L154,83.777Z" style="fill:white;stroke:black;stroke-width:1.34px;"/>
                    </g>
                    <path d="M154,83.777L158.634,103.562L149.366,103.562L154,83.777Z" style="fill:white;stroke:black;stroke-width:1.34px;"/>
                </g>
                <g id="feather56" serif:id="feather" transform="matrix(1,0,0,1,18.4318,0)">
                    <g transform="matrix(1,0,0,-1,0,207.035)">
                        <path d="M154,83.777L158.634,103.562L149.366,103.562L154,83.777Z" style="fill:white;stroke:black;stroke-width:1.34px;"/>
                    </g>
                    <path d="M154,83.777L158.634,103.562L149.366,103.562L154,83.777Z" style="fill:white;stroke:black;stroke-width:1.34px;"/>
                </g>
                <g transform="matrix(1,0,0,-1,32.0733,187.042)">
                    <g id="feather57" serif:id="feather">
                        <path d="M154,83.777L158.634,103.562L149.366,103.562L154,83.777Z" style="fill:white;stroke:black;stroke-width:1.34px;"/>
                    </g>
                </g>
                <g transform="matrix(1,0,0,-1,41.4454,187.042)">
                    <g id="feather58" serif:id="feather">
                        <path d="M154,83.777L158.634,103.562L149.366,103.562L154,83.777Z" style="fill:white;stroke:black;stroke-width:1.34px;"/>
                    </g>
                </g>
                <g transform="matrix(1,0,0,-1,22.9095,187.042)">
                    <g id="feather59" serif:id="feather">
                        <path d="M154,83.777L158.634,103.562L149.366,103.562L154,83.777Z" style="fill:white;stroke:black;stroke-width:1.34px;"/>
                    </g>
                </g>
                <g id="feather60" serif:id="feather" transform="matrix(1,0,0,1,0,38.1131)">
                    <g transform="matrix(1,0,0,-1,0,207.035)">
                        <path d="M154,83.777L158.634,103.562L149.366,103.562L154,83.777Z" style="fill:white;stroke:black;stroke-width:1.34px;"/>
                    </g>
                    <path d="M154,83.777L158.634,103.562L149.366,103.562L154,83.777Z" style="fill:white;stroke:black;stroke-width:1.34px;"/>
                </g>
                <g id="feather61" serif:id="feather" transform="matrix(1,0,0,1,9.37208,38.1131)">
                    <g transform="matrix(1,0,0,-1,0,207.035)">
                        <path d="M154,83.777L158.634,103.562L149.366,103.562L154,83.777Z" style="fill:white;stroke:black;stroke-width:1.34px;"/>
                    </g>
                    <path d="M154,83.777L158.634,103.562L149.366,103.562L154,83.777Z" style="fill:white;stroke:black;stroke-width:1.34px;"/>
                </g>
                <g id="feather62" serif:id="feather" transform="matrix(1,0,0,1,-9.16381,38.1131)">
                    <g transform="matrix(1,0,0,-1,0,207.035)">
                        <path d="M154,83.777L158.634,103.562L149.366,103.562L154,83.777Z" style="fill:white;stroke:black;stroke-width:1.34px;"/>
                    </g>
                    <path d="M154,83.777L158.634,103.562L149.366,103.562L154,83.777Z" style="fill:white;stroke:black;stroke-width:1.34px;"/>
                </g>
                <g id="feather63" serif:id="feather" transform="matrix(1,0,0,1,4.47777,18.1194)">
                    <g transform="matrix(1,0,0,-1,0,207.035)">
                        <path d="M154,83.777L158.634,103.562L149.366,103.562L154,83.777Z" style="fill:white;stroke:black;stroke-width:1.34px;"/>
                    </g>
                    <path d="M154,83.777L158.634,103.562L149.366,103.562L154,83.777Z" style="fill:white;stroke:black;stroke-width:1.34px;"/>
                </g>
                <g id="feather64" serif:id="feather" transform="matrix(1,0,0,1,13.8499,18.1194)">
                    <g transform="matrix(1,0,0,-1,0,207.035)">
                        <path d="M154,83.777L158.634,103.562L149.366,103.562L154,83.777Z" style="fill:white;stroke:black;stroke-width:1.34px;"/>
                    </g>
                    <path d="M154,83.777L158.634,103.562L149.366,103.562L154,83.777Z" style="fill:white;stroke:black;stroke-width:1.34px;"/>
                </g>
                <g id="feather65" serif:id="feather" transform="matrix(1,0,0,1,-4.68604,18.1194)">
                    <g transform="matrix(1,0,0,-1,0,207.035)">
                        <path d="M154,83.777L158.634,103.562L149.366,103.562L154,83.777Z" style="fill:white;stroke:black;stroke-width:1.34px;"/>
                    </g>
                    <path d="M154,83.777L158.634,103.562L149.366,103.562L154,83.777Z" style="fill:white;stroke:black;stroke-width:1.34px;"/>
                </g>
                <g id="feather66" serif:id="feather" transform="matrix(1,0,0,1,27.5956,38.1131)">
                    <g transform="matrix(1,0,0,-1,0,207.035)">
                        <path d="M154,83.777L158.634,103.562L149.366,103.562L154,83.777Z" style="fill:white;stroke:black;stroke-width:1.34px;"/>
                    </g>
                    <path d="M154,83.777L158.634,103.562L149.366,103.562L154,83.777Z" style="fill:white;stroke:black;stroke-width:1.34px;"/>
                </g>
                <g id="feather67" serif:id="feather" transform="matrix(1,0,0,1,36.9677,38.1131)">
                    <g transform="matrix(1,0,0,-1,0,207.035)">
                        <path d="M154,83.777L158.634,103.562L149.366,103.562L154,83.777Z" style="fill:white;stroke:black;stroke-width:1.34px;"/>
                    </g>
                    <path d="M154,83.777L158.634,103.562L149.366,103.562L154,83.777Z" style="fill:white;stroke:black;stroke-width:1.34px;"/>
                </g>
                <g id="feather68" serif:id="feather" transform="matrix(1,0,0,1,18.4318,38.1131)">
                    <g transform="matrix(1,0,0,-1,0,207.035)">
                        <path d="M154,83.777L158.634,103.562L149.366,103.562L154,83.777Z" style="fill:white;stroke:black;stroke-width:1.34px;"/>
                    </g>
                    <path d="M154,83.777L158.634,103.562L149.366,103.562L154,83.777Z" style="fill:white;stroke:black;stroke-width:1.34px;"/>
                </g>
                <g id="feather69" serif:id="feather" transform="matrix(1,0,0,1,32.0733,18.1194)">
                    <g transform="matrix(1,0,0,-1,0,207.035)">
                        <path d="M154,83.777L158.634,103.562L149.366,103.562L154,83.777Z" style="fill:white;stroke:black;stroke-width:1.34px;"/>
                    </g>
                    <path d="M154,83.777L158.634,103.562L149.366,103.562L154,83.777Z" style="fill:white;stroke:black;stroke-width:1.34px;"/>
                </g>
                <g id="feather70" serif:id="feather" transform="matrix(1,0,0,1,41.4454,18.1194)">
                    <g transform="matrix(1,0,0,-1,0,207.035)">
                        <path d="M154,83.777L158.634,103.562L149.366,103.562L154,83.777Z" style="fill:white;stroke:black;stroke-width:1.34px;"/>
                    </g>
                    <path d="M154,83.777L158.634,103.562L149.366,103.562L154,83.777Z" style="fill:white;stroke:black;stroke-width:1.34px;"/>
                </g>
                <g id="feather71" serif:id="feather" transform="matrix(1,0,0,1,22.9095,18.1194)">
                    <g transform="matrix(1,0,0,-1,0,207.035)">
                        <path d="M154,83.777L158.634,103.562L149.366,103.562L154,83.777Z" style="fill:white;stroke:black;stroke-width:1.34px;"/>
                    </g>
                    <path d="M154,83.777L158.634,103.562L149.366,103.562L154,83.777Z" style="fill:white;stroke:black;stroke-width:1.34px;"/>
                </g>
            </g>
            <g transform="matrix(1.24812,0.749685,0.520159,-1.54844,37.3349,96.7737)">
                <g id="feather72" serif:id="feather">
                    <g transform="matrix(1,0,0,-1,0,207.035)">
                        <path d="M154,83.777L158.634,103.562L149.366,103.562L154,83.777Z" style="fill:white;stroke:black;stroke-width:1.17px;"/>
                    </g>
                    <path d="M154,83.777L158.634,103.562L149.366,103.562L154,83.777Z" style="fill:white;stroke:black;stroke-width:1.46px;"/>
                </g>
                <g id="feather73" serif:id="feather" transform="matrix(1,0,0,1,9.37208,0)">
                    <g transform="matrix(1,0,0,-1,0,207.035)">
                        <path d="M154,83.777L158.634,103.562L149.366,103.562L154,83.777Z" style="fill:white;stroke:black;stroke-width:1.17px;"/>
                    </g>
                    <path d="M154,83.777L158.634,103.562L149.366,103.562L154,83.777Z" style="fill:white;stroke:black;stroke-width:1.46px;"/>
                </g>
                <g id="feather74" serif:id="feather" transform="matrix(1,0,0,1,-9.16381,0)">
                    <g transform="matrix(1,0,0,-1,0,207.035)">
                        <path d="M154,83.777L158.634,103.562L149.366,103.562L154,83.777Z" style="fill:white;stroke:black;stroke-width:1.17px;"/>
                    </g>
                    <path d="M154,83.777L158.634,103.562L149.366,103.562L154,83.777Z" style="fill:white;stroke:black;stroke-width:1.46px;"/>
                </g>
                <g id="feather75" serif:id="feather" transform="matrix(1,0,0,1,4.47777,-19.9938)">
                    <g transform="matrix(1,0,0,-1,0,207.035)">
                        <path d="M154,83.777L158.634,103.562L149.366,103.562L154,83.777Z" style="fill:white;stroke:black;stroke-width:1.17px;"/>
                    </g>
                    <path d="M154,83.777L158.634,103.562L149.366,103.562L154,83.777Z" style="fill:white;stroke:black;stroke-width:1.46px;"/>
                </g>
                <g id="feather76" serif:id="feather" transform="matrix(1,0,0,1,13.8499,-19.9938)">
                    <g transform="matrix(1,0,0,-1,0,207.035)">
                        <path d="M154,83.777L158.634,103.562L149.366,103.562L154,83.777Z" style="fill:white;stroke:black;stroke-width:1.17px;"/>
                    </g>
                    <path d="M154,83.777L158.634,103.562L149.366,103.562L154,83.777Z" style="fill:white;stroke:black;stroke-width:1.46px;"/>
                </g>
                <g id="feather77" serif:id="feather" transform="matrix(1,0,0,1,-4.68604,-19.9938)">
                    <g transform="matrix(1,0,0,-1,0,207.035)">
                        <path d="M154,83.777L158.634,103.562L149.366,103.562L154,83.777Z" style="fill:white;stroke:black;stroke-width:1.17px;"/>
                    </g>
                    <path d="M154,83.777L158.634,103.562L149.366,103.562L154,83.777Z" style="fill:white;stroke:black;stroke-width:1.46px;"/>
                </g>
                <g id="feather78" serif:id="feather" transform="matrix(1,0,0,1,27.5956,0)">
                    <g transform="matrix(1,0,0,-1,0,207.035)">
                        <path d="M154,83.777L158.634,103.562L149.366,103.562L154,83.777Z" style="fill:white;stroke:black;stroke-width:1.17px;"/>
                    </g>
                    <path d="M154,83.777L158.634,103.562L149.366,103.562L154,83.777Z" style="fill:white;stroke:black;stroke-width:1.46px;"/>
                </g>
                <g id="feather79" serif:id="feather" transform="matrix(1,0,0,1,36.9677,0)">
                    <g transform="matrix(1,0,0,-1,0,207.035)">
                        <path d="M154,83.777L158.634,103.562L149.366,103.562L154,83.777Z" style="fill:white;stroke:black;stroke-width:1.17px;"/>
                    </g>
                    <path d="M154,83.777L158.634,103.562L149.366,103.562L154,83.777Z" style="fill:white;stroke:black;stroke-width:1.46px;"/>
                </g>
                <g id="feather80" serif:id="feather" transform="matrix(1,0,0,1,18.4318,0)">
                    <g transform="matrix(1,0,0,-1,0,207.035)">
                        <path d="M154,83.777L158.634,103.562L149.366,103.562L154,83.777Z" style="fill:white;stroke:black;stroke-width:1.17px;"/>
                    </g>
                    <path d="M154,83.777L158.634,103.562L149.366,103.562L154,83.777Z" style="fill:white;stroke:black;stroke-width:1.46px;"/>
                </g>
                <g id="feather81" serif:id="feather" transform="matrix(1,0,0,1,32.0733,-19.9938)">
                    <g transform="matrix(1,0,0,-1,0,207.035)">
                        <path d="M154,83.777L158.634,103.562L149.366,103.562L154,83.777Z" style="fill:white;stroke:black;stroke-width:1.17px;"/>
                    </g>
                    <path d="M154,83.777L158.634,103.562L149.366,103.562L154,83.777Z" style="fill:white;stroke:black;stroke-width:1.46px;"/>
                </g>
                <g id="feather82" serif:id="feather" transform="matrix(1,0,0,1,41.4454,-19.9938)">
                    <g transform="matrix(1,0,0,-1,0,207.035)">
                        <path d="M154,83.777L158.634,103.562L149.366,103.562L154,83.777Z" style="fill:white;stroke:black;stroke-width:1.17px;"/>
                    </g>
                    <path d="M154,83.777L158.634,103.562L149.366,103.562L154,83.777Z" style="fill:white;stroke:black;stroke-width:1.46px;"/>
                </g>
                <g id="feather83" serif:id="feather" transform="matrix(1,0,0,1,22.9095,-19.9938)">
                    <g transform="matrix(1,0,0,-1,0,207.035)">
                        <path d="M154,83.777L158.634,103.562L149.366,103.562L154,83.777Z" style="fill:white;stroke:black;stroke-width:1.17px;"/>
                    </g>
                    <path d="M154,83.777L158.634,103.562L149.366,103.562L154,83.777Z" style="fill:white;stroke:black;stroke-width:1.46px;"/>
                </g>
                <g id="feather84" serif:id="feather" transform="matrix(1,0,0,1,0,38.1131)">
                    <path d="M154,83.777L158.634,103.562L149.366,103.562L154,83.777Z" style="fill:white;stroke:black;stroke-width:1.46px;"/>
                </g>
                <g id="feather85" serif:id="feather" transform="matrix(1,0,0,1,9.37208,38.1131)">
                    <g transform="matrix(1,0,0,-1,0,207.035)">
                        <path d="M154,83.777L158.634,103.562L149.366,103.562L154,83.777Z" style="fill:white;stroke:black;stroke-width:1.17px;"/>
                    </g>
                    <path d="M154,83.777L158.634,103.562L149.366,103.562L154,83.777Z" style="fill:white;stroke:black;stroke-width:1.46px;"/>
                </g>
                <g id="feather86" serif:id="feather" transform="matrix(1,0,0,1,-9.16381,38.1131)">
                    <path d="M154,83.777L158.634,103.562L149.366,103.562L154,83.777Z" style="fill:white;stroke:black;stroke-width:1.46px;"/>
                </g>
                <g id="feather87" serif:id="feather" transform="matrix(1,0,0,1,4.47777,18.1194)">
                    <g transform="matrix(1,0,0,-1,0,207.035)">
                        <path d="M154,83.777L158.634,103.562L149.366,103.562L154,83.777Z" style="fill:white;stroke:black;stroke-width:1.17px;"/>
                    </g>
                    <path d="M154,83.777L158.634,103.562L149.366,103.562L154,83.777Z" style="fill:white;stroke:black;stroke-width:1.46px;"/>
                </g>
                <g id="feather88" serif:id="feather" transform="matrix(1,0,0,1,13.8499,18.1194)">
                    <g transform="matrix(1,0,0,-1,0,207.035)">
                        <path d="M154,83.777L158.634,103.562L149.366,103.562L154,83.777Z" style="fill:white;stroke:black;stroke-width:1.17px;"/>
                    </g>
                    <path d="M154,83.777L158.634,103.562L149.366,103.562L154,83.777Z" style="fill:white;stroke:black;stroke-width:1.46px;"/>
                </g>
                <g id="feather89" serif:id="feather" transform="matrix(1,0,0,1,-4.68604,18.1194)">
                    <g transform="matrix(1,0,0,-1,0,207.035)">
                        <path d="M154,83.777L158.634,103.562L149.366,103.562L154,83.777Z" style="fill:white;stroke:black;stroke-width:1.17px;"/>
                    </g>
                    <path d="M154,83.777L158.634,103.562L149.366,103.562L154,83.777Z" style="fill:white;stroke:black;stroke-width:1.46px;"/>
                </g>
                <g id="feather90" serif:id="feather" transform="matrix(1,0,0,1,27.5956,38.1131)">
                    <g transform="matrix(1,0,0,-1,0,207.035)">
                        <path d="M154,83.777L158.634,103.562L149.366,103.562L154,83.777Z" style="fill:white;stroke:black;stroke-width:1.17px;"/>
                    </g>
                    <path d="M154,83.777L158.634,103.562L149.366,103.562L154,83.777Z" style="fill:white;stroke:black;stroke-width:1.46px;"/>
                </g>
                <g id="feather91" serif:id="feather" transform="matrix(1,0,0,1,36.9677,38.1131)">
                    <g transform="matrix(1,0,0,-1,0,207.035)">
                        <path d="M154,83.777L158.634,103.562L149.366,103.562L154,83.777Z" style="fill:white;stroke:black;stroke-width:1.17px;"/>
                    </g>
                    <path d="M154,83.777L158.634,103.562L149.366,103.562L154,83.777Z" style="fill:white;stroke:black;stroke-width:1.46px;"/>
                </g>
                <g id="feather92" serif:id="feather" transform="matrix(1,0,0,1,18.4318,38.1131)">
                    <g transform="matrix(1,0,0,-1,0,207.035)">
                        <path d="M154,83.777L158.634,103.562L149.366,103.562L154,83.777Z" style="fill:white;stroke:black;stroke-width:1.17px;"/>
                    </g>
                    <path d="M154,83.777L158.634,103.562L149.366,103.562L154,83.777Z" style="fill:white;stroke:black;stroke-width:1.46px;"/>
                </g>
                <g id="feather93" serif:id="feather" transform="matrix(1,0,0,1,32.0733,18.1194)">
                    <g transform="matrix(1,0,0,-1,0,207.035)">
                        <path d="M154,83.777L158.634,103.562L149.366,103.562L154,83.777Z" style="fill:white;stroke:black;stroke-width:1.17px;"/>
                    </g>
                    <path d="M154,83.777L158.634,103.562L149.366,103.562L154,83.777Z" style="fill:white;stroke:black;stroke-width:1.46px;"/>
                </g>
                <g id="feather94" serif:id="feather" transform="matrix(1,0,0,1,41.4454,18.1194)">
                    <g transform="matrix(1,0,0,-1,0,207.035)">
                        <path d="M154,83.777L158.634,103.562L149.366,103.562L154,83.777Z" style="fill:white;stroke:black;stroke-width:1.17px;"/>
                    </g>
                    <path d="M154,83.777L158.634,103.562L149.366,103.562L154,83.777Z" style="fill:white;stroke:black;stroke-width:1.46px;"/>
                </g>
                <g id="feather95" serif:id="feather" transform="matrix(1,0,0,1,22.9095,18.1194)">
                    <g transform="matrix(1,0,0,-1,0,207.035)">
                        <path d="M154,83.777L158.634,103.562L149.366,103.562L154,83.777Z" style="fill:white;stroke:black;stroke-width:1.17px;"/>
                    </g>
                    <path d="M154,83.777L158.634,103.562L149.366,103.562L154,83.777Z" style="fill:white;stroke:black;stroke-width:1.46px;"/>
                </g>
            </g>
            <g transform="matrix(-0.5681,-1.44896,-1.10848,1.12415,565.465,221.114)">
                <g id="feather96" serif:id="feather">
                    <g transform="matrix(1,0,0,-1,0,207.035)">
                        <path d="M154,83.777L158.634,103.562L149.366,103.562L154,83.777Z" style="fill:white;stroke:black;stroke-width:1.08px;"/>
                    </g>
                    <path d="M154,83.777L158.634,103.562L149.366,103.562L154,83.777Z" style="fill:white;stroke:black;stroke-width:1.66px;"/>
                </g>
                <g id="feather97" serif:id="feather" transform="matrix(1,0,0,1,9.37208,0)">
                    <g transform="matrix(1,0,0,-1,0,207.035)">
                        <path d="M154,83.777L158.634,103.562L149.366,103.562L154,83.777Z" style="fill:white;stroke:black;stroke-width:1.08px;"/>
                    </g>
                    <path d="M154,83.777L158.634,103.562L149.366,103.562L154,83.777Z" style="fill:white;stroke:black;stroke-width:1.66px;"/>
                </g>
                <g id="feather98" serif:id="feather" transform="matrix(1,0,0,1,-9.16381,0)">
                    <g transform="matrix(1,0,0,-1,0,207.035)">
                        <path d="M154,83.777L158.634,103.562L149.366,103.562L154,83.777Z" style="fill:white;stroke:black;stroke-width:1.08px;"/>
                    </g>
                    <path d="M154,83.777L158.634,103.562L149.366,103.562L154,83.777Z" style="fill:white;stroke:black;stroke-width:1.66px;"/>
                </g>
                <g id="feather99" serif:id="feather" transform="matrix(1,0,0,1,4.47777,-19.9938)">
                    <g transform="matrix(1,0,0,-1,0,207.035)">
                        <path d="M154,83.777L158.634,103.562L149.366,103.562L154,83.777Z" style="fill:white;stroke:black;stroke-width:1.08px;"/>
                    </g>
                    <path d="M154,83.777L158.634,103.562L149.366,103.562L154,83.777Z" style="fill:white;stroke:black;stroke-width:1.66px;"/>
                </g>
                <g id="feather100" serif:id="feather" transform="matrix(1,0,0,1,13.8499,-19.9938)">
                    <g transform="matrix(1,0,0,-1,0,207.035)">
                        <path d="M154,83.777L158.634,103.562L149.366,103.562L154,83.777Z" style="fill:white;stroke:black;stroke-width:1.08px;"/>
                    </g>
                    <path d="M154,83.777L158.634,103.562L149.366,103.562L154,83.777Z" style="fill:white;stroke:black;stroke-width:1.66px;"/>
                </g>
                <g id="feather101" serif:id="feather" transform="matrix(1,0,0,1,-4.68604,-19.9938)">
                    <g transform="matrix(1,0,0,-1,0,207.035)">
                        <path d="M154,83.777L158.634,103.562L149.366,103.562L154,83.777Z" style="fill:white;stroke:black;stroke-width:1.08px;"/>
                    </g>
                    <path d="M154,83.777L158.634,103.562L149.366,103.562L154,83.777Z" style="fill:white;stroke:black;stroke-width:1.66px;"/>
                </g>
                <g id="feather102" serif:id="feather" transform="matrix(1,0,0,1,27.5956,0)">
                    <g transform="matrix(1,0,0,-1,0,207.035)">
                        <path d="M154,83.777L158.634,103.562L149.366,103.562L154,83.777Z" style="fill:white;stroke:black;stroke-width:1.08px;"/>
                    </g>
                    <path d="M154,83.777L158.634,103.562L149.366,103.562L154,83.777Z" style="fill:white;stroke:black;stroke-width:1.66px;"/>
                </g>
                <g id="feather103" serif:id="feather" transform="matrix(1,0,0,1,36.9677,0)">
                    <g transform="matrix(1,0,0,-1,0,207.035)">
                        <path d="M154,83.777L158.634,103.562L149.366,103.562L154,83.777Z" style="fill:white;stroke:black;stroke-width:1.08px;"/>
                    </g>
                    <path d="M154,83.777L158.634,103.562L149.366,103.562L154,83.777Z" style="fill:white;stroke:black;stroke-width:1.66px;"/>
                </g>
                <g id="feather104" serif:id="feather" transform="matrix(1,0,0,1,18.4318,0)">
                    <g transform="matrix(1,0,0,-1,0,207.035)">
                        <path d="M154,83.777L158.634,103.562L149.366,103.562L154,83.777Z" style="fill:white;stroke:black;stroke-width:1.08px;"/>
                    </g>
                    <path d="M154,83.777L158.634,103.562L149.366,103.562L154,83.777Z" style="fill:white;stroke:black;stroke-width:1.66px;"/>
                </g>
                <g id="feather105" serif:id="feather" transform="matrix(1,0,0,1,32.0733,-19.9938)">
                    <g transform="matrix(1,0,0,-1,0,207.035)">
                        <path d="M154,83.777L158.634,103.562L149.366,103.562L154,83.777Z" style="fill:white;stroke:black;stroke-width:1.08px;"/>
                    </g>
                    <path d="M154,83.777L158.634,103.562L149.366,103.562L154,83.777Z" style="fill:white;stroke:black;stroke-width:1.66px;"/>
                </g>
                <g id="feather106" serif:id="feather" transform="matrix(1,0,0,1,41.4454,-19.9938)">
                    <g transform="matrix(1,0,0,-1,0,207.035)">
                        <path d="M154,83.777L158.634,103.562L149.366,103.562L154,83.777Z" style="fill:white;stroke:black;stroke-width:1.08px;"/>
                    </g>
                    <path d="M154,83.777L158.634,103.562L149.366,103.562L154,83.777Z" style="fill:white;stroke:black;stroke-width:1.66px;"/>
                </g>
                <g id="feather107" serif:id="feather" transform="matrix(1,0,0,1,22.9095,-19.9938)">
                    <g transform="matrix(1,0,0,-1,0,207.035)">
                        <path d="M154,83.777L158.634,103.562L149.366,103.562L154,83.777Z" style="fill:white;stroke:black;stroke-width:1.08px;"/>
                    </g>
                    <path d="M154,83.777L158.634,103.562L149.366,103.562L154,83.777Z" style="fill:white;stroke:black;stroke-width:1.66px;"/>
                </g>
                <g id="feather108" serif:id="feather" transform="matrix(1,0,0,1,0,38.1131)">
                    <g transform="matrix(1,0,0,-1,0,207.035)">
                        <path d="M154,83.777L158.634,103.562L149.366,103.562L154,83.777Z" style="fill:white;stroke:black;stroke-width:1.08px;"/>
                    </g>
                    <path d="M154,83.777L158.634,103.562L149.366,103.562L154,83.777Z" style="fill:white;stroke:black;stroke-width:1.66px;"/>
                </g>
                <g id="feather109" serif:id="feather" transform="matrix(1,0,0,1,9.37208,38.1131)">
                    <g transform="matrix(1,0,0,-1,0,207.035)">
                        <path d="M154,83.777L158.634,103.562L149.366,103.562L154,83.777Z" style="fill:white;stroke:black;stroke-width:1.08px;"/>
                    </g>
                    <path d="M154,83.777L158.634,103.562L149.366,103.562L154,83.777Z" style="fill:white;stroke:black;stroke-width:1.66px;"/>
                </g>
                <g id="feather110" serif:id="feather" transform="matrix(1,0,0,1,-9.16381,38.1131)">
                    <g transform="matrix(1,0,0,-1,0,207.035)">
                        <path d="M154,83.777L158.634,103.562L149.366,103.562L154,83.777Z" style="fill:white;stroke:black;stroke-width:1.08px;"/>
                    </g>
                    <path d="M154,83.777L158.634,103.562L149.366,103.562L154,83.777Z" style="fill:white;stroke:black;stroke-width:1.66px;"/>
                </g>
                <g id="feather111" serif:id="feather" transform="matrix(1,0,0,1,4.47777,18.1194)">
                    <g transform="matrix(1,0,0,-1,0,207.035)">
                        <path d="M154,83.777L158.634,103.562L149.366,103.562L154,83.777Z" style="fill:white;stroke:black;stroke-width:1.08px;"/>
                    </g>
                    <path d="M154,83.777L158.634,103.562L149.366,103.562L154,83.777Z" style="fill:white;stroke:black;stroke-width:1.66px;"/>
                </g>
                <g id="feather112" serif:id="feather" transform="matrix(1,0,0,1,13.8499,18.1194)">
                    <g transform="matrix(1,0,0,-1,0,207.035)">
                        <path d="M154,83.777L158.634,103.562L149.366,103.562L154,83.777Z" style="fill:white;stroke:black;stroke-width:1.08px;"/>
                    </g>
                    <path d="M154,83.777L158.634,103.562L149.366,103.562L154,83.777Z" style="fill:white;stroke:black;stroke-width:1.66px;"/>
                </g>
                <g id="feather113" serif:id="feather" transform="matrix(1,0,0,1,-4.68604,18.1194)">
                    <g transform="matrix(1,0,0,-1,0,207.035)">
                        <path d="M154,83.777L158.634,103.562L149.366,103.562L154,83.777Z" style="fill:white;stroke:black;stroke-width:1.08px;"/>
                    </g>
                    <path d="M154,83.777L158.634,103.562L149.366,103.562L154,83.777Z" style="fill:white;stroke:black;stroke-width:1.66px;"/>
                </g>
                <g id="feather114" serif:id="feather" transform="matrix(1,0,0,1,27.5956,38.1131)">
                    <g transform="matrix(1,0,0,-1,0,207.035)">
                        <path d="M154,83.777L158.634,103.562L149.366,103.562L154,83.777Z" style="fill:white;stroke:black;stroke-width:1.08px;"/>
                    </g>
                    <path d="M154,83.777L158.634,103.562L149.366,103.562L154,83.777Z" style="fill:white;stroke:black;stroke-width:1.66px;"/>
                </g>
                <g id="feather115" serif:id="feather" transform="matrix(1,0,0,1,36.9677,38.1131)">
                    <g transform="matrix(1,0,0,-1,0,207.035)">
                        <path d="M154,83.777L158.634,103.562L149.366,103.562L154,83.777Z" style="fill:white;stroke:black;stroke-width:1.08px;"/>
                    </g>
                    <path d="M154,83.777L158.634,103.562L149.366,103.562L154,83.777Z" style="fill:white;stroke:black;stroke-width:1.66px;"/>
                </g>
                <g id="feather116" serif:id="feather" transform="matrix(1,0,0,1,18.4318,38.1131)">
                    <g transform="matrix(1,0,0,-1,0,207.035)">
                        <path d="M154,83.777L158.634,103.562L149.366,103.562L154,83.777Z" style="fill:white;stroke:black;stroke-width:1.08px;"/>
                    </g>
                    <path d="M154,83.777L158.634,103.562L149.366,103.562L154,83.777Z" style="fill:white;stroke:black;stroke-width:1.66px;"/>
                </g>
                <g id="feather117" serif:id="feather" transform="matrix(1,0,0,1,32.0733,18.1194)">
                    <g transform="matrix(1,0,0,-1,0,207.035)">
                        <path d="M154,83.777L158.634,103.562L149.366,103.562L154,83.777Z" style="fill:white;stroke:black;stroke-width:1.08px;"/>
                    </g>
                    <path d="M154,83.777L158.634,103.562L149.366,103.562L154,83.777Z" style="fill:white;stroke:black;stroke-width:1.66px;"/>
                </g>
                <g id="feather118" serif:id="feather" transform="matrix(1,0,0,1,41.4454,18.1194)">
                    <g transform="matrix(1,0,0,-1,0,207.035)">
                        <path d="M154,83.777L158.634,103.562L149.366,103.562L154,83.777Z" style="fill:white;stroke:black;stroke-width:1.08px;"/>
                    </g>
                    <path d="M154,83.777L158.634,103.562L149.366,103.562L154,83.777Z" style="fill:white;stroke:black;stroke-width:1.66px;"/>
                </g>
                <g id="feather119" serif:id="feather" transform="matrix(1,0,0,1,22.9095,18.1194)">
                    <g transform="matrix(1,0,0,-1,0,207.035)">
                        <path d="M154,83.777L158.634,103.562L149.366,103.562L154,83.777Z" style="fill:white;stroke:black;stroke-width:1.08px;"/>
                    </g>
                    <path d="M154,83.777L158.634,103.562L149.366,103.562L154,83.777Z" style="fill:white;stroke:black;stroke-width:1.66px;"/>
                </g>
            </g>
        </g>
        <path d="M203.408,170.023C194.545,241.176 191.806,316.186 159.926,372.847C145.705,510.559 155.808,616.845 156.07,617.426C159.86,625.8 67.358,609.287 64.417,602.97L57.078,560.363L72.597,496.292L59.699,424.108L83.577,353.098L70.102,331.64L92.081,242.187L73.943,216.518L103.188,97.333L203.408,170.023Z" style="stroke:rgb(255,224,0);stroke-width:2px;"/>
        <path d="M315.103,185.304L337.131,349.612L355.788,363.568L360.685,462.081L343.336,505.391L348.714,574.262L332.9,606.168L300.719,618.354L320.387,477.992C324.978,452.598 327.498,436.732 352.926,405.209L355.788,363.568L359.308,337.949L349.451,266.717L361.035,237.452L357.884,140.111" style="stroke:rgb(255,224,0);stroke-width:2px;"/>
    </g>
    <g id="Arm1" serif:id="Arm" transform="matrix(1,0,0,1,2.45802,-3.27735)">
        <g id="Gauntlet">
            <path d="M351.193,400.931C346.852,406.419 341.202,409.291 334.348,409.752C332.912,407.971 332.408,405.391 332.928,401.934C327.697,405.725 322.466,405.477 317.236,402.565C317.327,397.044 317.36,392.933 320.244,386.294C315.495,390.367 311.689,389.992 306.102,388.479C303.13,382.049 305.953,370.52 309.979,357.933C313.881,357.825 303.414,331.145 295.13,323.603C311.546,323.039 324.541,319.689 340.957,313.819C338.741,344.559 343.682,358.126 347.179,356.973L356.168,364.54L351.608,376.912L354.758,384.808L351.193,400.931Z" style="fill:rgb(255,16,0);stroke:black;stroke-width:2px;"/>
            <path d="M347.179,356.973L334.138,353.408L329.863,361.383L309.979,357.933L329.863,361.383L326.657,366.974L351.608,376.912L340.957,372.669L332.928,401.934L340.957,372.669L326.657,366.974L320.244,386.294" style="fill:none;stroke:black;stroke-width:2px;"/>
            <path d="M303.004,334.837C316.169,325.817 323.96,324.598 340.413,326.54" style="fill:none;stroke:black;stroke-width:2px;"/>
        </g>
        <g id="BackSpear">
            <path d="M287.629,339.763L317.999,359.325L329.863,361.383L333.248,354.486L292.127,325.284L287.629,339.763Z" style="fill:rgb(255,179,0);stroke:black;stroke-width:2px;"/>
            <path d="M294.467,344.167C291.455,337.668 293.539,333.802 297.479,329.085" style="fill:none;stroke:black;stroke-width:2px;"/>
            <path d="M301.144,348.468C298.696,341.281 299.538,338.53 305.065,334.472" style="fill:none;stroke:black;stroke-width:2px;"/>
            <path d="M310.378,354.416C307.959,347.382 307.756,345.161 313.901,340.747" style="fill:none;stroke:black;stroke-width:2px;"/>
            <path d="M317.999,359.325C315.589,352.181 316.454,347.605 321.418,346.085" style="fill:none;stroke:black;stroke-width:2px;"/>
            <g transform="matrix(1,0,0,1,4.72176,1.70828)">
                <path d="M320.263,358.829C319.444,353.304 320.224,352.334 323.86,349.464" style="fill:none;stroke:black;stroke-width:2px;"/>
            </g>
        </g>
        <path d="M287.776,339.837L293.943,317.845" style="fill:none;stroke:rgb(255,224,0);stroke-width:2px;"/>
        <g transform="matrix(1,0,0,1,-35.6727,-18.4909)">
            <path d="M372.804,368.103L391.828,389.447L394.981,356.44L385.124,285.208L396.708,255.942L393.558,158.392L350.775,203.795C344.285,260.433 342.405,316.449 372.804,368.103Z" style="stroke:rgb(255,224,0);stroke-width:2px;"/>
        </g>
        <g id="Spear1" transform="matrix(1,0,0,1,-2.19536,-21.6399)">
            <path d="M494.065,490.806L441.104,473.096L451.566,468.926L356.456,408.092L353.871,398.463L355.62,390.463L455.697,460.171L455.493,447.789L494.065,490.806Z" style="fill:rgb(255,179,0);stroke:black;stroke-width:2px;"/>
            <path d="M446.567,465.305C443.935,461.302 444.083,457.062 446.481,453.752" style="fill:none;stroke:black;stroke-width:2px;"/>
            <g transform="matrix(1,0,0,1,-8.32429,-6.04811)">
                <path d="M445.916,465.63C443.285,461.627 442.843,456.447 445.241,453.138" style="fill:none;stroke:black;stroke-width:2px;"/>
            </g>
            <g transform="matrix(1,0,0,1,-16.0145,-10.8118)">
                <path d="M445.656,465.305C443.025,461.302 442.983,455.952 445.381,452.643" style="fill:none;stroke:black;stroke-width:2px;"/>
            </g>
            <g transform="matrix(1,0,0,1,-24.3225,-15.4129)">
                <path d="M446.567,465.305C443.935,461.302 443.854,455.373 446.253,452.064" style="fill:none;stroke:black;stroke-width:2px;"/>
            </g>
            <g transform="matrix(1,0,0,1,-32.6468,-21.461)">
                <path d="M445.851,465.761C443.22,461.757 444.862,456.325 447.261,453.016" style="fill:none;stroke:black;stroke-width:2px;"/>
            </g>
            <g transform="matrix(1,0,0,1,-40.337,-26.2247)">
                <path d="M445.465,465.448C442.834,461.444 444.723,455.635 447.121,452.326" style="fill:none;stroke:black;stroke-width:2px;"/>
            </g>
            <g transform="matrix(1,0,0,1,-48.7751,-31.8014)">
                <path d="M445.851,465.874C443.22,461.871 444.944,455.489 447.343,452.179" style="fill:none;stroke:black;stroke-width:2px;"/>
            </g>
            <g transform="matrix(1,0,0,1,-57.0994,-37.8495)">
                <path d="M446,466.504C443.369,462.501 445.608,456.201 448.006,452.891" style="fill:none;stroke:black;stroke-width:2px;"/>
            </g>
            <g transform="matrix(1,0,0,1,-64.7896,-42.6132)">
                <path d="M445.934,466.371C443.303,462.368 445.292,455.388 447.69,452.078" style="fill:none;stroke:black;stroke-width:2px;"/>
            </g>
            <g transform="matrix(1,0,0,1,-70.1061,-46.2388)">
                <path d="M445.368,466.005C442.737,462.001 443.903,454.343 446.301,451.033" style="fill:none;stroke:black;stroke-width:2px;"/>
            </g>
            <g transform="matrix(1,0,0,1,-78.4303,-52.2869)">
                <path d="M444.802,466.571C442.171,462.567 444.58,455.064 446.979,451.755" style="fill:none;stroke:black;stroke-width:2px;"/>
            </g>
            <g transform="matrix(1,0,0,1,-86.1205,-57.0506)">
                <path d="M445.268,466.737C442.637,462.734 445.041,454.792 447.439,451.482" style="fill:none;stroke:black;stroke-width:2px;"/>
            </g>
            <path d="M451.469,468.95C454.114,466.389 456.048,463.509 455.697,460.171" style="fill:none;stroke:black;stroke-width:2px;"/>
            <path d="M483.079,483.801L450.73,473.132C458.806,472.616 461.54,466.188 459.273,457.488L483.079,483.801" style="fill:none;stroke:black;stroke-width:2px;"/>
            <path d="M457.81,470.526L483.079,483.801" style="fill:none;stroke:black;stroke-width:2px;"/>
            <path d="M459.927,465.724L483.079,483.801" style="fill:none;stroke:black;stroke-width:2px;"/>
        </g>
    </g>
    <g transform="matrix(1,0.386243,0,1,-0.389397,-90.3903)">
        <path d="M141.813,177.581L145.148,206.95L164.408,185.233L150.544,211.036L178.372,205.266L152.605,217.648L178.372,230.029L150.544,224.26L164.408,250.063L145.148,228.346L141.813,257.715L138.478,228.346L119.219,250.063L133.082,224.26L105.255,230.029L131.021,217.648L105.255,205.266L133.082,211.036L119.219,185.233L138.478,206.95L141.813,177.581Z" style="fill:rgb(255,224,0);stroke:black;stroke-opacity:0;stroke-width:1.65px;"/>
    </g>
    <g transform="matrix(0.638272,-0.412006,0,0.686247,249.815,100.237)">
        <path d="M141.813,177.581L145.728,205.091L164.408,185.233L152.061,209.887L178.372,205.266L154.48,217.648L178.372,230.029L152.061,225.408L164.408,250.063L145.728,230.205L141.813,257.715L137.899,230.205L119.219,250.063L131.566,225.408L105.255,230.029L129.146,217.648L105.255,205.266L131.566,209.887L119.219,185.233L137.899,205.091L141.813,177.581Z" style="fill:rgb(255,224,0);stroke:black;stroke-opacity:0;stroke-width:4.07px;"/>
    </g>
    <g id="Head" transform="matrix(1,0,0,1,2.45802,-3.27735)">
        <path d="M247.397,176.466L211.565,150.381L211.956,108.999L216.514,99.224L204.213,104.826L227.497,75.117L216.624,80.444C230.197,54.079 246.045,35.243 267.917,36.35L316.112,35.921L314.289,39.032L331.879,47.398L325.98,55.227L343.999,62.843L337.456,66.06L347.538,72.925C352.177,94.118 353.231,109.006 349.576,115.613L345.178,157.442L335.418,146.717L311.929,177.928C275.417,186.666 255.429,176.477 253.184,145.968L247.397,176.466" style="stroke:black;stroke-width:2px;"/>
        <g id="Face">
            <path d="M281.521,102.593C270.346,101.934 266.718,121.929 271.033,150.921C267.836,150.624 266.786,148.503 262.798,145.603C262.155,151.284 262.187,157.026 263.977,162.929C260.118,161.506 256.177,157.167 252.318,152.425L253.561,169.392C253.561,169.392 276.138,186.694 291.924,193.392C300.695,189.067 307.212,184.634 310.792,176.025C315.932,165.973 322.659,154.504 328.462,140.915L327.984,108.437C324.086,115.978 321.086,119.924 318.515,122.158C319.355,113.774 318.578,106.828 313.447,103.753C310.783,109.685 307.822,114.131 304.274,115.64L295.361,96.517L287.868,110.316L281.521,102.593Z" style="fill:rgb(157,128,122);stroke:black;stroke-width:2px;"/>
            <g transform="matrix(1,0,0,1,-0.514603,-1.09353)">
                <path d="M273.806,123.345C279.262,124.33 297.818,132.179 300.149,133.677C301.534,133.599 302.125,132.664 302.534,131.804L301.511,129.281" style="fill:none;stroke:black;stroke-width:2px;"/>
            </g>
            <path d="M308.042,132.956C309.083,135.263 310.77,136.387 312.816,136.851C318.524,132.104 323.63,129.16 328.332,127.428" style="fill:none;stroke:black;stroke-width:2px;"/>
            <path d="M308.042,132.956L309.934,129.808" style="fill:none;stroke:black;stroke-width:2px;"/>
            <path d="M304.517,124.579L309.572,124.579" style="fill:none;stroke:black;stroke-width:2px;"/>
            <path d="M290.767,157.581C295.666,153.143 298.309,147.729 297.848,138.467" style="fill:none;stroke:black;stroke-width:2px;"/>
            <path d="M310.492,150.043C308.243,147.13 307.285,140.555 308.145,133.032" style="fill:none;stroke:black;stroke-width:2px;"/>
            <path d="M271.446,136.493C277.486,141.066 283.867,143.191 290.254,145.267C292.636,144.552 295.069,144.199 297.587,144.444C297.061,139.96 298.125,136.755 300.505,132.531L277.569,129.315C274.913,130.97 273.071,133.601 271.446,136.493Z" style="stroke:black;stroke-width:2px;"/>
            <path d="M321.267,145.946C323.462,144.498 325.294,142.59 326.666,140.099C326.506,136.058 327.03,131.07 328.024,127.028C322.6,129.357 317.379,132.268 312.339,135.694C310.424,135.295 309.092,134.203 308.078,133.018C308.124,136.879 308.902,140.603 309.828,144.298C313.752,144.044 317.563,144.608 321.267,145.946Z" style="stroke:black;stroke-width:2px;"/>
            <g transform="matrix(1.01535,0,0,3.075,-5.06964,-338.306)">
                <path d="M297.634,162.048L303.666,163.608L309.673,161.976" style="stroke:rgb(202,0,23);stroke-opacity:0;stroke-width:0.22px;"/>
            </g>
            <path d="M297.241,159.888L299.421,138.432L305.508,131.948L306.504,136.791L306.36,147.021L309.423,159.861L304.157,161.827L297.241,159.888Z" style="fill:rgb(153,108,97);stroke:white;stroke-opacity:0;stroke-width:2px;"/>
            <g transform="matrix(1.23066,0,0,1.23066,-71.9235,-41.5667)">
                <path d="M289.495,177.349C291.24,177.851 292.74,178.865 294.086,180.206C298.437,178.896 302.708,178.527 306.826,179.949C307.043,178.636 307.648,177.478 308.864,176.565C306.713,172.201 299.579,174.155 289.495,177.349Z" style="fill:rgb(153,108,97);stroke:rgb(202,0,23);stroke-opacity:0;stroke-width:1.63px;"/>
            </g>
            <g transform="matrix(1.23066,0,0,1.23066,-71.9235,-41.5667)">
                <path d="M288.067,176.992C292.636,175.502 294.566,173.888 298.402,170.202C300.358,171.152 301.933,172.244 302.913,173.56C303.963,172.184 305.283,171.437 306.7,170.916C307.587,173.393 309.001,175.546 311.474,176.437C304.731,174.516 298.469,174.278 288.067,176.992Z" style="stroke:black;stroke-width:1.63px;"/>
            </g>
            <g transform="matrix(1.3226,0.354391,-0.354391,1.3226,-55.3137,-157.647)">
                <path d="M321.766,137.604L320.283,141.358L317.56,138.361L321.766,137.604Z" style="fill:rgb(222,63,81);stroke:rgb(202,0,23);stroke-width:0.37px;"/>
            </g>
            <g transform="matrix(1.3226,0.354391,-0.354391,1.3226,-55.3137,-157.647)">
                <path d="M319.187,134.886L321.766,137.604L317.509,138.363L319.187,134.886Z" style="fill:rgb(222,63,81);stroke:rgb(202,0,23);stroke-width:0.37px;"/>
            </g>
            <g transform="matrix(1.3226,0.354391,-0.354391,1.3226,-55.3137,-157.647)">
                <path d="M320.239,141.278L319.17,135.237" style="fill:none;stroke:rgb(202,0,23);stroke-width:0.37px;"/>
            </g>
            <g transform="matrix(1.3226,0.354391,-0.354391,1.3226,-82.3685,-158.589)">
                <path d="M321.766,137.604L320.283,141.358L317.56,138.361L321.766,137.604Z" style="fill:white;stroke:rgb(121,121,121);stroke-width:0.37px;"/>
            </g>
            <g transform="matrix(1.3226,0.354391,-0.354391,1.3226,-82.3685,-158.589)">
                <path d="M319.187,134.886L321.766,137.604L317.509,138.363L319.187,134.886Z" style="fill:white;stroke:rgb(121,121,121);stroke-width:0.37px;"/>
            </g>
            <g transform="matrix(1.3226,0.354391,-0.354391,1.3226,-82.3685,-158.589)">
                <path d="M320.239,141.278L319.17,135.237" style="fill:none;stroke:rgb(121,121,121);stroke-width:0.37px;"/>
            </g>
            <path d="M300.844,170.537L303.202,162.901" style="fill:none;stroke:black;stroke-width:2px;"/>
        </g>
        <g id="Hair">
            <path d="M256.772,26.175C260.811,26.053 269.882,29.067 277.306,39.289C285.221,34.779 291.689,30.882 294.454,31.405C294.118,31.632 285.918,43.816 285.988,44.845C290.918,43.002 296.254,42.946 301.184,43.743C298.031,46.936 296.076,49.742 296.842,53.415C303.394,53.575 308.388,54.429 311.6,56.358C317.977,60.188 318.18,72.48 317.228,75.361C308.28,69.283 299.141,59.599 298.909,60.263C301.688,64.937 304.046,67.329 306.33,71.068C303.632,77.049 304.035,85.253 301.285,92.94C296.33,87.081 292.169,81.517 288.335,73.975C288.101,68.377 290.823,63.263 289.442,63.088C287.896,62.892 282.856,76.021 282.744,76.017C281.628,84.811 279.308,93.117 279.336,93.035C279.342,93.02 274.25,86.391 271.742,75.924C271.74,75.917 277.555,62.148 277.298,61.185C276.509,58.234 261.011,69.475 242.827,83.307C247.138,72.164 252.714,63.989 259.256,58.077C257.132,55.89 255.785,55.179 252.894,56.479C247.086,65.703 241.836,83.141 240.907,85.24C238.668,86.808 232.396,98.855 229.96,100.44C226.864,99.361 233.61,90.989 241.066,72.921C237.169,76.647 230.564,88.141 226.164,90.107C228.953,80.938 238.481,50.075 238.569,49.895C240.764,45.409 247.351,39.968 259.523,39.821C263.188,36.351 264.373,37.494 268.268,36.791C265.142,34.964 256.583,27.678 256.772,26.175Z" style="fill:rgb(104,104,104);stroke:black;stroke-width:2px;"/>
            <path d="M241.079,64.961C242.226,60.572 244.024,56.534 246.622,52.927C246.752,53.213 249.259,54.352 249.656,54.359C247.295,58.307 244.445,61.849 241.079,64.961Z" style="stroke:black;stroke-width:2px;"/>
            <path d="M272.526,47.449C272.437,48.191 273.573,52.372 274.154,53.504C275.192,52.662 280.001,48.811 279.99,48.761" style="fill:rgb(104,104,104);stroke:black;stroke-width:2px;"/>
            <path d="M300.269,49.544C303.075,49.363 308.265,49.304 313.067,50.827L312.034,47.501C312.08,47.493 322.298,54.69 328.599,51.829C321.595,37.456 297.659,34.884 291.58,40.055C297.104,40.93 301.832,41.67 307.407,41.149C307.346,41.114 299.917,48.017 300.269,49.544Z" style="fill:rgb(104,104,104);stroke:black;stroke-width:2px;"/>
            <path d="M258.231,94.072C255.794,90.674 254.992,87.906 255.719,83.047C256.813,77.135 263.066,73.361 273.301,65.25C269.022,75.612 261.477,92.332 258.231,94.072Z" style="fill:rgb(104,104,104);stroke:black;stroke-width:2px;"/>
            <path d="M241.305,112.582C239.221,109.904 237.624,106.779 236.513,103.208C238.99,94.6 242.942,89.111 248.259,86.508C249.507,89.186 250.562,91.966 250.263,95.459C245.604,100.945 243.122,107.335 241.305,112.582Z" style="fill:rgb(104,104,104);stroke:black;stroke-width:2px;"/>
            <path d="M243.809,132.901C241.005,130.033 238.317,126.844 235.918,122.861C235.869,119.93 235.34,115.958 234.682,111.708C237.78,117.382 241.666,122.448 242.802,121.368C242.632,124.859 242.964,128.7 243.809,132.901Z" style="fill:rgb(104,104,104);stroke:black;stroke-width:2px;"/>
            <path d="M216.455,138.578C219.383,124.166 223.862,103.544 227.108,104.442C229.972,109.972 227.141,127.162 216.455,138.578Z" style="fill:rgb(104,104,104);stroke:black;stroke-width:2px;"/>
            <path d="M287.454,105.608C291.068,101.438 293.195,96.578 293.969,91.089C292.336,86.824 289.596,82.517 286.34,77.845C285.967,78.838 282.948,90.801 283.06,92.169C283.182,93.653 286.298,105.665 287.454,105.608" style="fill:rgb(104,104,104);stroke:black;stroke-width:2px;"/>
            <path d="M267.345,112.102C269.348,105.576 272.436,100.225 275.662,95.023C273.135,90.626 271.116,85.316 269.603,79.093C264.849,87.642 261.759,95.451 260.656,102.378C263.16,106.755 265.348,109.753 267.345,112.102Z" style="fill:rgb(104,104,104);stroke:black;stroke-width:2px;"/>
            <path d="M257.077,124.41C253.908,121.404 251.243,117.715 249.851,112.299C251.094,106.012 253.187,102.616 255.698,100.64C255.457,108.458 254.402,116.465 257.077,124.41Z" style="fill:rgb(104,104,104);stroke:black;stroke-width:2px;"/>
            <g transform="matrix(1,0,0,1,-1.95366,0.0930316)">
                <path d="M272.272,150.127C267.553,145.304 263.583,127.477 263.524,127.286C263.385,126.839 263.829,116.673 265.964,115.566C268.492,114.254 270.892,125.04 270.949,125.146C269.839,134.658 270.681,142.679 272.272,150.127Z" style="fill:rgb(104,104,104);stroke:black;stroke-width:2px;"/>
            </g>
            <path d="M261.628,156.665C256.409,152.537 252.447,145.652 252.204,145.755C252.433,145.905 252.478,138.435 254.212,134.274C256.945,135.561 258.839,137.165 261.189,140.11L261.628,156.665Z" style="fill:rgb(104,104,104);stroke:black;stroke-width:2px;"/>
            <path d="M241.816,161.597C237.377,153.909 234.038,145.441 234.543,136.104L244.17,144.875L241.816,161.597Z" style="fill:rgb(104,104,104);stroke:black;stroke-width:2px;"/>
            <path d="M305.58,111.78C302.342,107.595 299.896,101.046 298.523,95.726C300.634,96.405 301.669,95.759 303.536,94.247C303.436,92.767 304.768,82.806 306.056,75.947C309.212,82.428 311.478,89.139 312.444,96.187C311.206,101.93 309.008,107.174 305.58,111.78" style="fill:rgb(104,104,104);stroke:black;stroke-width:2px;"/>
            <path d="M321.09,113.087C320.187,109.689 318.571,106.238 315.385,102.331C318.509,100.822 320.344,98.454 321.565,95.676C324.091,101.544 323.889,107.346 321.09,113.087Z" style="fill:rgb(104,104,104);stroke:black;stroke-width:2px;"/>
            <path d="M329.825,105.54C326.259,101.919 324.26,97.749 323.229,93.24C323.522,90.493 325.103,86.296 325.012,79.988C320.877,91.605 317.33,99.557 315.861,94.547C315.964,87.387 313.008,80.484 307.66,73.451C309.557,73.475 312.664,75.586 318.238,81.949C319.605,83.335 320.587,78.855 321.447,72.5C324.09,73.659 326.608,75.577 328.534,78.785C330.223,81.597 332.022,85.488 332.345,87.214C334.14,96.812 333.228,102.154 329.825,105.54Z" style="fill:rgb(104,104,104);stroke:black;stroke-width:2px;"/>
            <path d="M335.622,110.896C335.5,110.772 331.687,109 331.311,106.075L335.59,92.467C342.68,99.602 346.708,107.653 348.242,116.45C344.841,114.865 341.621,112.918 338.739,110.294C337.324,106.597 336.178,103.163 336.061,99.881C335.047,103.671 335.701,110.977 335.622,110.896Z" style="fill:rgb(104,104,104);stroke:black;stroke-width:2px;"/>
            <g transform="matrix(1,0,0,1,0.298818,0.217322)">
                <path d="M341.347,74.971C333.682,71.836 326.35,68.075 319.723,62.993C320.922,60.682 322.865,58.835 326.141,57.823C327.619,60.269 330.08,63.475 331.213,63.682C332.48,63.914 336.767,67.088 336.808,67.07C338.28,66.42 344.805,70.221 346.365,72.638C346.379,72.661 343.606,74.715 341.347,74.971Z" style="fill:rgb(104,104,104);stroke:black;stroke-width:2px;"/>
            </g>
            <path d="M351.613,99.306L341.041,87.512C336.887,82.433 333.146,77.148 329.92,71.605C335.524,74.449 340.24,77.972 343.874,82.323C347.077,87.82 349.512,93.519 351.613,99.306Z" style="fill:rgb(104,104,104);stroke:black;stroke-width:2px;"/>
            <g transform="matrix(1,0,0,1,-0.829017,0.994821)">
                <path d="M345.857,151.198C343.169,147.527 341.264,143.353 339.843,138.867C339.366,133.947 339.692,129.097 341.297,124.359C344.451,127.224 345.473,131.25 346.627,136.322C347.869,141.784 346.878,147.095 345.857,151.198Z" style="fill:rgb(104,104,104);stroke:black;stroke-width:2px;"/>
            </g>
            <path d="M225.822,90.997L222.24,105.859L214.13,116.565L216.862,102.78L225.822,90.997Z" style="fill:rgb(104,104,104);stroke:black;stroke-width:2px;"/>
            <path d="M228.659,72.651L217.408,79.018L232.933,55.731L228.659,72.651" style="fill:rgb(104,104,104);stroke:black;stroke-width:2px;"/>
        </g>
    </g>
    <path d="M125.638,250.082L154.519,298.488L102.452,394.079L132.554,451.434L89.842,552.314L117.91,591.364" style="fill:none;stroke:black;stroke-width:2px;"/>
</svg>
